<?xml version="1.0" encoding="utf-8"?>
<!-- Generator: Adobe Illustrator 23.0.0, SVG Export Plug-In . SVG Version: 6.00 Build 0)  -->
<svg version="1.1" id="Layer_1" xmlns="http://www.w3.org/2000/svg" xmlns:xlink="http://www.w3.org/1999/xlink" x="0px" y="0px"
	 viewBox="0 0 300 150" style="enable-background:new 0 0 300 150;" xml:space="preserve">
<style type="text/css">
	.st0{fill:#3E3E3B;}
</style>
<g>
	<path class="st0" d="M19.4,118.3c2.3,0,4.4,0,6.7,0c0-1.2-0.1-2.3,0-3.5c0.5-7.6,4.3-13.1,10.5-17.2c3-1.9,6.3-3.1,9.9-3.7
		c0.7-0.1,1.1-0.3,1.2-1.1c0.3-2,2.4-3.6,4.6-3.7c1.8-0.1,3.5-0.1,5.3,0c2.8,0.1,4.7,2.2,4.7,4.9c0,16.3,0,32.6,0,48.8
		c0,2.5-1.6,4.5-4.2,4.8c-2.1,0.2-4.3,0.2-6.4,0c-2.2-0.2-3.8-1.8-4.1-3.9c-0.1-0.7-0.5-0.8-1-0.9c-6.8-1.1-12.4-4.2-16.6-9.8
		c-2.6-3.5-4-7.5-4-11.9c0-0.3,0-0.6-0.1-1c-2.3,0-4.7,0-7,0c-2.1,0-2.2-0.1-2.2-2.2C17,97.2,23,78.1,34.3,60.8
		c11.9-18.3,27.9-32.1,47.1-42.3C95.7,10.9,111,6.1,127,3.9c11.2-1.6,22.4-1.9,33.6-0.8c18,1.6,35,6.3,51.1,14.5
		C234.1,29.1,252,45.2,264.4,67c8.8,15.5,13.5,32.2,13.9,50.1c0.1,3.7-0.3,3.3-3.3,3.3c-1.6,0-3.1,0-4.8,0c0,6.1-2.1,11.2-6.4,15.4
		c-4.2,4.2-9.3,6.4-14.8,7.2c-0.9,1.4-1.4,2.7-2.4,3.6c-0.8,0.7-2.1,1.1-3.3,1.2c-1.5,0.2-3,0.1-4.5,0c-3.2,0-5.2-2.1-5.2-5.2
		c0-16.1,0.1-32.2,0-48.2c0-3.3,2.3-5.2,5.2-5.3c1.1,0,2.3,0,3.4,0c3.7,0,5.3,1.2,6.3,4.8c6.1,0.9,11.5,3.3,15.8,7.9
		c4.3,4.6,6.1,10.2,5.7,16.6c1.9,0,3.8,0,5.9,0c-0.1-2.2-0.1-4.5-0.3-6.7c-2.8-31.7-17.5-56.9-41.7-76.9
		c-18.3-15.1-39.5-24.2-62.8-28C142,2,113.8,5.6,87.1,18.4C63.9,29.5,45.4,45.9,32.7,68.5c-8.5,15.2-13,31.5-13.3,49
		C19.4,117.8,19.4,118,19.4,118.3z M248.6,141.1c0.7-0.1,1.3-0.2,1.8-0.3c7.4-1.8,13.2-5.7,16.1-13c2.1-5.3,1.9-11,0.7-16.4
		c-1.8-7.8-7.3-12.3-14.7-14.7c-1.2-0.4-2.5-0.6-3.8-0.9C248.6,111,248.6,126,248.6,141.1z M47.6,141.1c0-15.1,0-30.1,0-45.2
		c-0.4,0-0.7,0-1,0.1c-0.9,0.2-1.8,0.4-2.7,0.7c-7.5,2.4-13,7.1-14.8,15c-0.6,2.8-0.5,5.7-0.5,8.6c-0.2,5.8,2,10.7,6.2,14.7
		C38.3,138.5,42.7,140.4,47.6,141.1z M246.2,118.5c0-8.1,0-16.2,0-24.3c0-2-1-3-2.9-3c-1.3,0-2.7,0-4,0c-1.8,0-2.9,1.1-2.9,2.9
		c0,16.3,0,32.6,0,48.9c0,1.8,1.1,2.9,3,2.9c1.2,0,2.4,0,3.6,0c2.3,0,3.3-1,3.3-3.3C246.2,134.5,246.2,126.5,246.2,118.5z M60,118.5
		c0-8.1,0-16.2,0-24.3c0-2.1-0.9-3.1-3.1-3.1c-1,0-2,0-3,0c-2.9,0-3.7,0.8-3.7,3.7c0,15.8,0,31.6,0,47.4c0,0.4,0,0.7,0,1.1
		c0.1,1.6,1.2,2.6,2.8,2.6c1.3,0,2.6,0,3.9,0c2.2,0,3.1-1,3.1-3.2C60,134.6,60,126.6,60,118.5z"/>
	<path class="st0" d="M104.8,110.3c-0.3,1.3-1.6,0.9-2.6,0.9c-2,0-3.9,0-5.9,0s-2,0-2.2-2.2c0.2,0,0.5,0,0.7-0.1
		c1.7-0.2,2-0.4,2.4-2.1c0.3-1.4,0.6-2.7,0.9-4.1c0.1-0.7,0.5-1.6-0.6-1.9c-1.3-0.4-2.7,0-2.9,1.1c-0.5,1.9-0.8,3.8-1.3,5.6
		c-0.3,1.2-0.5,2.3-0.8,3.8c-3.2,0-6.5,0-9.7,0c-0.4,0-0.9-0.6-1.1-1c-1.1-2.4-2-4.9-3-7.3c-0.2-0.5-0.4-0.9-0.8-1.4
		c-0.4,2.1-0.7,4.2-1.1,6.3c-0.8,4.5-1.5,9-2.3,13.5c-0.1,0.8-0.6,1.4-0.9,2.2c-0.1,0-0.3,0-0.4,0c-0.4-1.1-0.9-2.3-1.3-3.4
		c-0.9-2.8-1.9-5.6-2.7-8.4c-0.3-0.9-0.7-1.1-1.6-1.1c-0.8,0.1-1.5,0-2.3,0s-1.1-0.5-1.1-1.2s0.5-0.9,1.1-0.9c1.5,0,3,0,4.5,0
		c1,3,2,5.9,2.9,8.9c0.1,0,0.2,0,0.3,0c1.4-7.1,2.7-14.3,4.1-21.4c1,0,1.3,0.6,1.6,1.3c1.4,3.6,2.9,7.1,4.3,10.7
		c0.3,0.6,0.6,0.8,1.2,0.8c1.8-0.1,3.5-0.1,5.3-0.1c0.8,0,1.1-0.2,1.2-1c1.4-6.9,2.9-13.7,4.3-20.6c0.1-0.4,0.2-0.8,0.3-1.3
		c0.8,0,1.5,0,2.5,0c-0.9,4.3-1.8,8.5-2.7,12.7c1.1-0.1,2-0.4,3-0.3c1.9,0,2.9,0.9,2.6,2.8c-0.3,2.6-1,5.1-1.5,7.8
		c1.2-0.1,2.8,0,4.3-0.3c0.5-0.1,1.1-0.9,1.3-1.5c0.5-1.4,0.7-3,1-4.5c0.8-4,4.1-4.9,7.1-4.1c0.6,0.2,1.2,0.7,1.5,1.2
		c1.3,2.3-0.5,6.2-3.1,6.8c-1.9,0.5-2.2,0.3-2.6-1.8c0.2,0,0.4-0.1,0.7-0.1c2.5,0.2,2.7-1.2,2.9-2.9c0-0.3-0.2-0.8-0.4-1
		c-1.1-0.7-3-0.1-3.3,1.2c-0.4,1.8-0.8,3.5-1.1,5.3c-0.2,0.8,0.2,1.3,1,1.3c2.8,0,5.5,0,8.3,0c0.9,0,1.3-0.7,1.5-1.5
		c0.4-1.6,0.6-3.2,1-4.8c0.8-3.4,3.1-4.7,6.5-3.6c0.2,0.1,0.4,0.1,0.5,0.1c0.8-0.1,1.6-0.3,2.7-0.5c-0.5,2.5-1,4.7-1.4,6.8
		c-0.2,0.8-0.4,1.6-0.4,2.4c0,0.4,0.5,1.1,0.9,1.1c1,0.1,2,0.2,3-0.1c0.5-0.1,1.1-0.8,1.2-1.3c0.5-2.1,1-4.1,1.3-6.2
		c0.1-0.8-0.3-1.6-0.5-2.5c0.3-0.1,0.7-0.1,1.1-0.2c0.1-0.6,0.4-1.2,0.4-1.9c0.1-2.1,1.2-3.1,3.2-3.4c-0.3,1.7-0.7,3.5-1.1,5.4
		c1.1,0,2,0,3.1,0c-0.1,0.6-0.2,1-0.3,1.4c-0.1,0.8-0.4,1-1.2,1c-2.2,0-2.2,0-2.6,2.1c-0.3,1.4-0.6,2.8-0.9,4.2
		c-0.2,1,0.2,1.6,1.2,1.6c2.9,0,5.9,0.1,8.8,0c0.5,0,1.1-0.6,1.3-1.1c0.3-0.7,0-1.4-0.8-1.8c-0.6-0.3-1.3-0.5-1.9-0.8
		c-1.5-0.6-2-1.6-1.9-3.5c0.1-1.5,0.8-2.5,2.3-2.9c0.3-0.1,0.7-0.2,1.1-0.2c1.2,0,2.3,0,3.6,0c0,0.7,0,1.4,0,2.3c-1,0-2-0.1-3,0
		c-0.5,0.1-1.3,0.6-1.3,0.8c0,0.6,0.4,1.2,0.8,1.6c0.2,0.3,0.7,0.3,1.1,0.4c1.7,0.4,2.7,1.5,2.6,3.3c0,1.3,0.7,1.7,1.8,1.8
		c3.4,0.2,3.7,0,3.7-3.4c0-1.2,0-2.4,0.1-3.6c0.1-2,1-3,2.9-3.2c1.2-0.2,2.5,0,3.8,0c0,0.7,0,1.4,0,2.1c-0.9,0-1.8,0.1-2.7,0.1
		c-1,0-1.5,0.6-1.5,1.5c0,1.6,0,3.2,0,4.8c0,1,0.5,1.5,1.5,1.6c2.2,0,4.3,0,6.5,0c1,0,1.4-0.6,1.4-1.6c0-1.5,0-3.1,0-4.6
		c0.1-3.2,1.2-4.3,4.4-4.1c1,0.1,2,0.4,3,0c0.4-0.1,0.9,0,1.5,0c0,2.4,0,4.7,0,7c0,3.3,0,3.3,3.3,3.3c0.4,0,0.7,0,1.1,0
		c1.4-0.1,1.7-0.5,1.7-1.9c0-2.8,0-5.5,0-8.5c0.9,0.1,1.7,0.2,2.5,0.2c0.3,0,0.6,0,0.8-0.1c3.3-1.1,5.5,0.5,5.5,3.9
		c0,2.1-0.1,4.2-0.2,6.4c1.4,0,3,0,4.6,0c1.2,0,1.7-0.6,1.7-1.8c0-1.6,0-3.3,0.1-4.9c0.2-2.2,1.2-3.4,3.4-3.6c4.6-0.5,6,2.2,5.1,6.2
		c-0.3,1.5-2.5,2.7-3.9,2.2c-0.6-0.2-1-1.1-1.6-1.9c0.5-0.1,0.7-0.1,0.9-0.1c2.4,0.2,2.6-1,2.3-3.1c-0.1-1-1-1-1.8-1s-1.8,0-1.9,1.1
		c-0.1,2-0.1,3.9,0,5.9c0,0.4,0.6,0.8,1,1c0.3,0.2,0.8,0.2,1.2,0.2c3.8,0,7.6,0,11.5,0.1c0.7,0,1-0.2,1.2-0.8
		c1.5-3.8,3-7.6,4.6-11.4c0.1-0.3,0.6-0.5,1.2-1c1.4,7.5,2.7,14.7,4.1,21.9c0.1,0,0.1,0,0.2,0c1-2.9,1.9-5.9,3-9
		c1.6,0,3.3-0.1,5,0.1c0.4,0,1,0.7,1.1,1.1c0.1,0.8-0.5,1-1.3,1c-1,0-2.1,0-3.1,0c-1.2,3.6-2.4,7.2-3.6,10.8
		c-0.3,0.8-0.5,1.6-1.9,1.7c-1.4-7.2-2.7-14.6-4.2-22.2c-0.3,0.5-0.4,0.8-0.6,1.1c-1.1,2.6-2.2,5.3-3.2,7.9c-0.3,0.7-0.7,1-1.5,1
		c-4.6,0-9.2,0-13.7-0.1c-1,0-1.9-0.5-2.8-0.7c-0.9,0.2-1.9,0.7-2.9,0.7c-2.1,0.1-4.3,0-6.4,0c-2.2,0-2.2,0-2.9-2.1
		c0.1,0,0.1-0.1,0.2-0.1c2.4-0.2,2.5-0.3,2.5-2.8c0-1.3,0-2.6,0-3.9s-0.5-1.6-2-1.6c-1.4,0-1.8,0.3-1.8,1.7c0,5.6,0,11.2,0,16.8
		c0,0.5,0,1,0,1.5c-0.8,0-1.6,0-2.5,0c0-3.3,0-6.5,0-9.7c-2.7,0.1-5.4,0.9-8-0.8c-0.9,1.3-2.5,1.1-3.9,1c-0.8-0.1-1.6-0.5-2.6-0.8
		c-1.8,1.4-9.9,1.4-11.8-0.3c-0.7,1.5-2.1,1.1-3.4,1.2c-1.3,0-2.7,0.2-3.3-0.8c-1.1,0.3-2,0.8-3,0.8c-3.5,0.1-6.9,0.1-10.4,0
		c-0.9,0-1.7-0.5-2.7-0.8c-0.6,1.5-2.3,0.7-3.6,0.8c-1.4,0.1-2.9,0.4-3.8-1.1c-2.1,1.6-4.9,1.5-6.5-0.1c-0.2,0.4-0.5,0.7-0.7,1.1
		c-3.4,0-6.8,0.1-10.3,0C106.4,111.1,105.6,110.6,104.8,110.3z M123.6,100.8c-1,0-1.7,0.5-1.9,1.7c-0.3,1.5-0.7,3.1-0.9,4.6
		c-0.3,1.5,0.3,2,1.7,1.9c1.1-0.1,1.7-0.6,1.9-1.7c0.3-1.5,0.7-3.1,1-4.6C125.6,101.1,125.3,100.8,123.6,100.8z M172.4,104.9
		L172.4,104.9c0-0.9,0-1.8,0-2.6c0-1.1-0.6-1.4-1.5-1.4s-2-0.1-2.1,1.2c-0.1,1.9-0.1,3.8,0,5.6c0,1.2,1,1.3,1.9,1.3
		c1,0,1.7-0.4,1.7-1.5C172.4,106.6,172.4,105.7,172.4,104.9z"/>
</g>
</svg>
